# xmcd CD database file
#
# Track frame offsets:
#	150
#	24171
#	43116
#	60621
#	87621
#	90737
#	107198
#	131648
#	157823
#	176768
#	194018
#	218537
#	244712
#
# Disc length: 3569 seconds
#
# Revision: 0
# Processed by: cddbd v1.5PL3 Copyright (c) Steve Scherf et al.
# Submitted via: CDex 1.50beta10
#
DISCID=af0def0d
DTITLE=Napua - A Little Time For Me
DYEAR=1900
DGENRE=Jazz
TTITLE0=Viajeiro
TTITLE1=The Apple Of My Eye
TTITLE2=Old Rockin' Chair
TTITLE3=Rain Falling Rain
TTITLE4=Do or Die
TTITLE5=You Get To Me
TTITLE6=After The Love Has Gone
TTITLE7=Set Me Free
TTITLE8=Getting Better
TTITLE9=Life For Two
TTITLE10=Miami
TTITLE11=Love And Hope
TTITLE12=The City Of Love
EXTD=
EXTT0=
EXTT1=
EXTT2=
EXTT3=
EXTT4=
EXTT5=
EXTT6=
EXTT7=
EXTT8=
EXTT9=
EXTT10=
EXTT11=
EXTT12=
PLAYORDER=
